<svg id="Lag_1" data-name="Lag 1" xmlns="http://www.w3.org/2000/svg" viewBox="0 0 141.73 141.73"><defs><style>.cls-1{fill:#1d1d1b;}</style></defs><path class="cls-1" d="M69.77,66a23.5,23.5,0,1,1,23.5-23.5A23.52,23.52,0,0,1,69.77,66Zm0-44.18A20.68,20.68,0,1,0,90.45,42.5,20.7,20.7,0,0,0,69.77,21.82Z"/><path class="cls-1" d="M43.77,112.75a1.5,1.5,0,0,1-1.5-1.5V81.5A13.51,13.51,0,0,1,55.77,68h31a13.52,13.52,0,0,1,13.5,13.5v29.28a1.5,1.5,0,0,1-3,0V81.5A10.51,10.51,0,0,0,86.77,71h-31a10.51,10.51,0,0,0-10.5,10.5v29.75A1.5,1.5,0,0,1,43.77,112.75Z"/><path class="cls-1" d="M98.77,113h-55a1.5,1.5,0,0,1,0-3h55a1.5,1.5,0,0,1,0,3Z"/></svg>