<svg id="Lag_1" data-name="Lag 1" xmlns="http://www.w3.org/2000/svg" viewBox="0 0 141.73 141.73"><defs><style>.cls-1{fill:none;}.cls-1,.cls-2{stroke:#1d1d1b;stroke-miterlimit:10;}.cls-2{fill:#1d1d1b;}</style></defs><path class="cls-1" d="M39.13,80.86l26.23-4.64a14.16,14.16,0,0,1,2.21,6.19,41.26,41.26,0,0,0,11.61-8.63l.26,0,.06-.28a42.19,42.19,0,0,0,7.09-10.34,13.9,13.9,0,0,1-5-1.58"/><path class="cls-2" d="M38.89,85.85a42.21,42.21,0,0,0,28.68-3.44,41.26,41.26,0,0,0,11.61-8.63l.26,0,.06-.28a42.24,42.24,0,0,0,10-39.06,14.46,14.46,0,0,1,13.36,14.41A49.68,49.68,0,0,1,53.23,98.5,14.43,14.43,0,0,1,38.89,85.85Z"/><path class="cls-2" d="M38.89,85.85A12.15,12.15,0,0,1,38.76,84a13.78,13.78,0,0,1,.37-3.18l26.23-4.64a14.16,14.16,0,0,1,2.21,6.19,42.21,42.21,0,0,1-28.68,3.44Z"/><path class="cls-2" d="M81.6,61.54l4.77-27a11.92,11.92,0,0,1,2.08-.17,10.24,10.24,0,0,1,1.1,0,42.28,42.28,0,0,1-3,28.72A13.9,13.9,0,0,1,81.6,61.54Z"/><path class="cls-1" d="M39.13,80.86l26.23-4.64a14.16,14.16,0,0,1,2.21,6.19,41.26,41.26,0,0,0,11.61-8.63,2.42,2.42,0,0,0,.32-.32,42.19,42.19,0,0,0,7.09-10.34,13.9,13.9,0,0,1-5-1.58"/><line class="cls-1" x1="39.13" y1="80.86" x2="65.36" y2="76.22"/><polyline class="cls-1" points="79.5 73.46 79.44 73.74 79.18 73.78"/></svg>